<svg xmlns="http://www.w3.org/2000/svg" width="39" height="34" viewBox="0 0 39 34">
  <path fill="#DCE0E3" fill-rule="evenodd" d="M19.5,13.7495172 C22.7296875,13.7495172 25.35,16.3889335 25.35,19.6421675 C25.35,22.8954014 22.7296875,25.5348177 19.5,25.5348177 C16.2703125,25.5348177 13.65,22.8954014 13.65,19.6421675 C13.65,16.3889335 16.2703125,13.7495172 19.5,13.7495172 Z M33.8,5.23791132 C36.6640625,5.23791132 39,7.5908793 39,10.4758226 L39,28.8085123 C39,31.6934556 36.6640625,34.0464236 33.8,34.0464236 L5.2,34.0464236 C2.3359375,34.0464236 0,31.6934556 0,28.8085123 L0,10.4758226 C0,7.5908793 2.3359375,5.23791132 5.2,5.23791132 L9.75,5.23791132 L10.7859375,2.45527093 C11.29375,1.10487192 12.878125,0 14.3,0 L24.7,0 C26.121875,0 27.70625,1.10487192 28.2140625,2.45527093 L29.25,5.23791132 L33.8,5.23791132 Z M19.5,28.8085123 C24.5171875,28.8085123 28.6,24.6959335 28.6,19.6421675 C28.6,14.5884015 24.5171875,10.4758226 19.5,10.4758226 C14.4828125,10.4758226 10.4,14.5884015 10.4,19.6421675 C10.4,24.6959335 14.4828125,28.8085123 19.5,28.8085123 Z"/>
</svg>
