<svg xmlns="http://www.w3.org/2000/svg" width="32" height="32" viewBox="0 0 32 32" fill="none">
  <path d="M23 17H21.8388L19.1925 2H20C20.2652 2 20.5196 1.89464 20.7071 1.70711C20.8946 1.51957 21 1.26522 21 1C21 0.734784 20.8946 0.48043 20.7071 0.292893C20.5196 0.105357 20.2652 0 20 0H4C3.73478 0 3.48043 0.105357 3.29289 0.292893C3.10536 0.48043 3 0.734784 3 1C3 1.26522 3.10536 1.51957 3.29289 1.70711C3.48043 1.89464 3.73478 2 4 2H4.8075L2.16125 17H1C0.734784 17 0.48043 17.1054 0.292893 17.2929C0.105357 17.4804 0 17.7348 0 18C0 18.2652 0.105357 18.5196 0.292893 18.7071C0.48043 18.8946 0.734784 19 1 19H11V26C11 26.2652 11.1054 26.5196 11.2929 26.7071C11.4804 26.8946 11.7348 27 12 27C12.2652 27 12.5196 26.8946 12.7071 26.7071C12.8946 26.5196 13 26.2652 13 26V19H23C23.2652 19 23.5196 18.8946 23.7071 18.7071C23.8946 18.5196 24 18.2652 24 18C24 17.7348 23.8946 17.4804 23.7071 17.2929C23.5196 17.1054 23.2652 17 23 17ZM6.83875 2H17.1612L19.8075 17H4.1925L6.83875 2Z" fill="white"/>
</svg>